<svg width="32" height="52" viewBox="0 0 32 52" fill="none" xmlns="http://www.w3.org/2000/svg">
<path d="M29.9157 5.18821C21.1494 13.1474 22.4981 25.5283 22.5594 26.059L22.682 27.0612L23.7241 27.1791C24.0307 27.2381 25.8084 27.5918 25.5632 30.2449C25.3793 32.5442 22.682 32.898 21.5785 33.0159C20.659 31.8367 17.6552 26.9433 17.3487 12.9116C17.3487 12.2041 17.3487 11.4966 17.3487 10.7891C17.3487 10.7891 17.5939 5.77778 17.8391 3.65533L16.0613 0L14.2222 3.53742C14.4674 5.65986 14.7126 10.6712 14.7126 10.6712C14.7126 11.3787 14.7126 12.0862 14.7126 12.7937C14.4061 26.8254 11.4023 31.7778 10.4828 32.898C9.31801 32.839 6.68199 32.4263 6.49809 30.127C6.25287 27.4739 8.03065 27.1202 8.33716 27.0612L9.37931 26.9433L9.50192 25.941C9.56322 25.4104 10.9119 13.0295 2.14559 5.07029L0 3.24263V41.3878H8.88889C9.62452 46.9887 14.9579 51.1746 15.2031 51.3515L16 52L16.7969 51.3515C17.0421 51.1746 22.4368 46.9887 23.1111 41.3878H32V3.24263L29.9157 5.18821ZM7.04981 24.9388C5.76245 25.4104 4.22989 26.6485 3.98467 29.0068H2.57471V9.31519C7.04981 15.093 7.11111 22.4626 7.04981 24.9388ZM8.70498 37.7324L8.76628 38.9116H2.57471V31.424H4.16858C4.84291 33.7823 7.04981 34.7846 9.0728 35.1973C8.70498 36.3764 8.70498 37.5556 8.70498 37.7324ZM11.2797 37.6735C11.2797 37.0249 11.341 36.0816 11.6475 35.4921C13.9157 35.9637 14.5287 37.7324 14.7126 38.9705H11.341L11.2797 37.6735ZM14.7739 47.4603C13.4866 45.9864 11.954 43.8639 11.5249 41.3878H14.7739V47.4603ZM16.3678 35.0204C16.2452 35.1383 16.1226 35.3152 16 35.4921C15.8774 35.3152 15.7548 35.1973 15.6322 35.0204C14.9579 34.3129 14.1609 33.7234 13.2414 33.3696C14.0996 31.9546 15.1418 29.5964 16 25.6463C16.8582 29.5964 17.9004 32.0136 18.7586 33.3696C17.8391 33.7234 17.0421 34.254 16.3678 35.0204ZM17.2874 47.4014V41.3878H20.5364C20.1686 43.805 18.636 45.9274 17.2874 47.4014ZM20.7816 37.6735L20.7203 38.9116H17.3487C17.5326 37.6735 18.1456 35.9048 20.4138 35.4331C20.7203 36.0816 20.7816 37.0249 20.7816 37.6735ZM25.0115 24.9388C24.8889 22.5215 25.0115 15.1519 29.4866 9.31519V29.0068H28.0766C27.8314 26.5896 26.3602 25.4104 25.0115 24.9388ZM23.295 38.9116L23.3563 37.7324C23.3563 37.5556 23.4176 36.3764 23.0498 35.1973C25.0115 34.8435 27.2184 33.7823 27.954 31.424H29.5479V38.9116H23.295Z" fill="#F2CD13" fill-opacity="0.97"/>
</svg>
