<svg width="249" height="267" viewBox="0 0 249 267" fill="none" xmlns="http://www.w3.org/2000/svg">
<path fill-rule="evenodd" clip-rule="evenodd" d="M90.5546 231.849C54.0228 223.476 15.3132 205.859 3.09256 170.454C-8.74797 136.151 16.5643 103.18 35.4497 72.204C53.303 42.9212 71.5029 11.0659 104.952 3.38401C140.824 -4.85433 178.834 7.88499 205.629 33.1209C232.001 57.9589 243.928 94.5322 239.931 130.51C236.131 164.712 214.209 192.981 185.721 212.308C157.537 231.429 123.772 239.461 90.5546 231.849Z" fill="url(#paint0_linear_0_1)"/>
<path d="M96.2347 247.22C32.7343 247.22 62.1276 166.41 127.261 169.929C176.996 203.48 154.735 247.22 96.2347 247.22Z" fill="#F5F5F5"/>
<path d="M113.551 99.8798C105.858 81.4168 116.756 74.2367 123.167 72.9546C127.975 76.16 145.092 82.5707 136.629 82.5707C128.167 82.5707 130.539 94.1101 132.783 99.8798C174.325 156.038 150.092 187.387 137.591 196.041C123.167 190.272 99.1264 177.001 118.359 170.078C142.399 161.423 123.167 122.959 113.551 99.8798Z" fill="url(#paint1_linear_0_1)"/>
<path d="M192.799 99.404C223.407 217.544 189.914 238.821 164.609 216.668C150.643 212.041 156.849 217.542 158.993 204.944C163.668 203.488 158.092 128.962 157.886 114.108C157.68 99.2535 162.649 102.238 165.159 105.587C168.048 83.9395 172.703 94.1701 174.669 101.991C176.358 46.8279 187.459 77.2817 192.799 99.404Z" fill="#C4C4C4"/>
<path d="M191.558 100.164C222.166 218.305 188.673 239.581 163.368 217.429C149.403 212.802 155.608 218.302 157.752 205.704C162.427 204.248 156.851 129.723 156.645 114.868C156.439 100.014 161.408 102.998 163.919 106.347C166.808 84.7 171.462 94.9305 173.429 102.752C175.117 47.5884 186.218 78.0422 191.558 100.164Z" fill="url(#paint2_linear_0_1)"/>
<path d="M166.288 109.764C139.017 124.801 126.359 116.03 123.438 109.764C103.527 97.9248 108.146 57.5161 142.235 57.5161C176.323 57.5161 200.377 90.9676 166.288 109.764Z" fill="white"/>
<path d="M148.719 96.3574L151.172 93.931C156.556 88.6037 164.329 84.9913 173.367 83.6168C173.985 83.5228 174.676 83.734 175.114 84.1511L197.354 105.325C198.734 106.638 197.486 108.313 195.431 107.907L150.225 98.9692C148.657 98.6592 147.835 97.2325 148.719 96.3574Z" fill="#DF5B04"/>
<rect x="178.719" y="67.7203" width="15" height="22" fill="#010101"/>
<circle r="11" transform="matrix(-1 0 0 1 178.719 78.7203)" fill="#010101"/>
<circle r="11" transform="matrix(-1 0 0 1 193.719 78.7203)" fill="#222222"/>
<circle r="8" transform="matrix(-1 0 0 1 193.719 78.7203)" fill="#8DCCF0"/>
<ellipse opacity="0.29" rx="7" ry="7" transform="matrix(-1 8.74228e-08 8.74228e-08 1 193.719 78.7203)" fill="white"/>
<ellipse rx="2.5" ry="3.79686" transform="matrix(-0.707107 0.707107 0.707107 0.707107 196.171 76.1728)" fill="white"/>
<path d="M148.105 96.2703L149.81 94.6377C155.709 88.9925 164.052 85.1343 173.719 83.5815C174.148 83.5127 174.62 83.575 175.041 83.756L207.705 97.7952C209.852 98.7179 209.393 101.037 207.079 100.958L150.094 99.0146C148.265 98.9522 147.051 97.2783 148.105 96.2703Z" fill="#FF6B0A"/>
<rect x="150.719" y="68.7203" width="15" height="22" fill="#010101"/>
<circle r="11" transform="matrix(-1 0 0 1 150.719 79.7203)" fill="#010101"/>
<circle r="11" transform="matrix(-1 0 0 1 165.719 79.7203)" fill="#222222"/>
<circle r="8" transform="matrix(-1 0 0 1 165.719 79.7203)" fill="#8DCCF0"/>
<ellipse opacity="0.29" rx="7" ry="7" transform="matrix(-1 8.74228e-08 8.74228e-08 1 165.719 79.7203)" fill="white"/>
<ellipse rx="2.5" ry="3.79686" transform="matrix(-0.707107 0.707107 0.707107 0.707107 168.171 77.1728)" fill="white"/>
<path d="M167.631 37.6422L166.837 33.456L116.801 42.9446L121.105 65.6448L122.864 65.3113L164.593 60.0479L171.142 56.1563L168.15 40.3773L168.396 40.3641L168.359 37.6376L167.631 37.6422Z" fill="#373500"/>
<ellipse rx="26.1945" ry="2.60336" transform="matrix(-0.982491 0.186312 0.186312 0.982491 142.634 42.5242)" fill="#0C0632"/>
<path d="M171.734 51.1195C188.782 52.1021 204.963 74.164 133.849 62.5191L171.734 51.1195Z" fill="#373500"/>
<path d="M171.852 55.9345C169.198 63.8309 126.177 71.5677 120.362 65.6987L116.951 47.4441C124.538 48.4697 138.036 41.6215 149.706 43.6229L164.613 56.8855L168.359 37.6376L171.852 55.9345Z" fill="#494600"/>
<ellipse rx="25.4584" ry="2.60336" transform="matrix(-0.982491 0.186312 0.186312 0.982491 141.885 38.519)" fill="#373500"/>
<ellipse rx="25.8166" ry="2.60336" transform="matrix(-0.982491 0.186312 0.186312 0.982491 142.263 42.5946)" fill="#373500"/>
<path d="M153.183 32.9718C153.11 33.061 153.047 33.1309 152.998 33.2068C152.571 33.8245 152.401 34.4283 152.525 35.1541C152.577 35.4615 152.668 35.7664 152.74 36.0671C152.806 36.3328 152.869 36.5939 152.929 36.8614C152.944 36.931 152.964 36.956 153.046 36.9382C153.219 36.8944 153.389 36.9207 153.516 37.0529C153.631 37.168 153.655 37.309 153.609 37.4533C153.564 37.6023 153.448 37.6957 153.303 37.7516C153.229 37.7772 153.169 37.7658 153.105 37.7132C152.61 37.319 152.228 36.8426 151.941 36.2909C151.705 35.8334 151.568 35.3418 151.412 34.8617C151.322 34.5886 151.221 34.3141 151.141 34.0375C151.087 33.8638 151.023 33.7046 150.917 33.5543C150.812 33.404 150.677 33.2798 150.503 33.1852C150.423 33.3574 150.395 33.5378 150.422 33.7154C150.45 33.8818 150.502 34.0508 150.554 34.2087C150.613 34.3807 150.695 34.5443 150.761 34.7082C150.939 35.1432 151.122 35.5765 151.284 36.0166C151.551 36.7518 151.613 37.5045 151.457 38.2686C151.439 38.3709 151.379 38.4184 151.282 38.4413C151.039 38.5043 150.797 38.3906 150.719 38.1776C150.645 37.9788 150.761 37.7359 150.988 37.6463C151.07 37.6126 151.065 37.5825 151.03 37.5196C150.858 37.1895 150.689 36.853 150.522 36.5212C150.328 36.1454 150.158 35.7612 149.854 35.45C149.452 35.0393 149.007 34.8254 148.433 34.6987C148.391 34.6917 148.35 34.6847 148.29 34.6734C148.306 34.716 148.316 34.7444 148.327 34.7728C149.004 36.6042 149.654 38.3599 150.331 40.1913C150.37 40.2954 150.37 40.2954 150.473 40.2596C150.862 40.1248 151.255 39.9884 151.644 39.8537C151.713 39.8298 151.749 39.8385 151.789 39.8996C152.087 40.362 152.507 40.6864 153.051 40.8504C153.164 40.8859 153.274 40.9438 153.385 40.9905C153.516 40.6677 153.763 40.3899 153.843 40.0364C153.908 39.747 153.938 39.4535 153.89 39.1603C153.882 39.0936 153.905 39.0645 153.964 39.044C154.362 38.9059 154.756 38.7695 155.154 38.6313C155.223 38.6074 155.247 38.583 155.219 38.5073C154.538 36.6664 153.884 34.8965 153.203 33.0557C153.209 33.0428 153.202 33.0239 153.183 32.9718ZM153.061 33.9642C153.073 33.9656 153.088 33.9604 153.099 33.9618C153.112 33.9949 153.124 34.028 153.136 34.0611C153.463 34.9461 153.765 35.76 154.092 36.645C154.146 36.7917 154.146 36.7917 153.989 36.8463C153.93 36.8667 153.895 36.8628 153.859 36.8111C153.736 36.6565 153.568 36.5649 153.375 36.536C153.292 36.522 153.266 36.4828 153.251 36.4131C153.175 36.0713 153.102 35.723 153.01 35.3862C152.919 35.0335 152.903 34.7507 152.97 34.3912C152.993 34.2442 153.031 34.1081 153.061 33.9642ZM149.013 35.3837C149.023 35.3802 149.026 35.3738 149.036 35.3704C149.08 35.398 149.123 35.4256 149.162 35.455C149.459 35.6724 149.699 35.8403 149.872 36.1592C150.089 36.5646 150.295 36.9735 150.507 37.3806C150.538 37.434 150.537 37.477 150.49 37.5306C150.361 37.6768 150.291 37.8455 150.291 38.0427C150.292 38.1334 150.245 38.1711 150.108 38.1918C150.024 38.2049 150.032 38.1379 150.017 38.0953C149.684 37.1961 149.378 36.368 149.043 35.4641C149.028 35.4374 149.017 35.409 149.013 35.3837ZM153.515 38.1158C153.538 38.1025 153.566 38.0875 153.597 38.0661C153.882 37.8924 154.069 37.6622 154.053 37.3205C154.052 37.2728 154.065 37.247 154.111 37.2364C154.145 37.2245 154.18 37.2125 154.214 37.2006C154.264 37.1835 154.29 37.1956 154.308 37.243C154.439 37.5979 154.572 37.9575 154.698 38.3142C154.705 38.3331 154.682 38.3893 154.662 38.3962C154.398 38.493 154.128 38.5868 153.86 38.6741C153.841 38.681 153.789 38.6615 153.777 38.6442C153.691 38.4712 153.605 38.2982 153.515 38.1158ZM151.41 38.8457C151.46 39.0418 151.502 39.2301 151.551 39.4215C151.565 39.4753 151.526 39.4889 151.486 39.5026C151.235 39.5895 150.988 39.6701 150.739 39.7618C150.66 39.7891 150.625 39.7692 150.604 39.6965C150.491 39.3777 150.369 39.0624 150.25 38.7406C150.196 38.5939 150.196 38.5939 150.348 38.541C150.392 38.5257 150.432 38.512 150.466 38.559C150.658 38.8075 150.925 38.8856 151.23 38.8705C151.295 38.8643 151.355 38.8485 151.41 38.8457ZM151.959 37.1496C152.231 37.4662 152.5 37.7734 152.835 38.0314C152.719 38.1836 152.611 38.3277 152.497 38.4688C152.482 38.4898 152.43 38.4974 152.4 38.4917C152.244 38.4603 152.094 38.4161 151.939 38.3847C151.89 38.3747 151.872 38.3544 151.881 38.3033C151.956 37.9515 151.963 37.5966 151.952 37.2373C151.958 37.2085 151.958 37.1767 151.959 37.1496ZM153.446 39.2343C153.557 39.4735 153.468 40.0595 153.329 40.1773C153.322 40.1742 153.315 40.1712 153.315 40.1712C153.224 39.9251 153.128 39.6808 153.044 39.4377C153.037 39.4188 153.061 39.3784 153.079 39.3669C153.198 39.3148 153.323 39.2769 153.446 39.2343ZM152.919 40.33C152.664 40.285 152.231 39.8639 152.195 39.6627C152.303 39.6252 152.421 39.5842 152.529 39.5467C152.593 39.5246 152.622 39.5414 152.643 39.5982C152.716 39.7969 152.79 39.9957 152.863 40.1945C152.884 40.2353 152.9 40.2779 152.919 40.33ZM153.136 38.9201C153.072 38.9423 153.005 38.9709 152.937 38.9836C152.917 38.9904 152.864 38.9662 152.864 38.9503C152.816 38.7318 152.887 38.5042 153.076 38.3853C153.117 38.3605 153.145 38.3614 153.171 38.4006C153.238 38.5216 153.3 38.6442 153.369 38.7699C153.391 38.8155 153.369 38.8447 153.324 38.86C153.263 38.8757 153.2 38.8979 153.136 38.9201ZM152.231 39.2339C152.171 39.2543 152.117 39.2731 152.058 39.2936C152.001 39.3188 151.958 39.307 151.945 39.2421C151.916 39.1187 151.887 38.9953 151.863 38.8701C151.852 38.8099 151.876 38.7855 151.942 38.784C152.148 38.7712 152.387 38.9073 152.46 39.0901C152.467 39.109 152.445 39.1541 152.427 39.1657C152.36 39.1943 152.294 39.2117 152.231 39.2339Z" fill="#FFD500"/>
<ellipse rx="13.0071" ry="14.1974" transform="matrix(-0.761754 0.647867 0.647867 0.761754 131.093 100.652)" fill="url(#paint3_radial_0_1)"/>
<path d="M167.971 109.985C198.579 228.125 165.086 249.401 139.781 227.249C125.816 222.622 132.021 228.123 134.165 215.524C138.84 214.068 133.264 139.543 133.058 124.688C132.852 109.834 137.821 112.818 140.331 116.167C143.22 94.5201 147.875 104.751 149.842 112.572C151.53 57.4085 162.631 87.8623 167.971 109.985Z" fill="#C4C4C4"/>
<path d="M166.167 110.849C196.776 228.989 163.282 250.265 137.977 228.113C124.012 223.486 130.217 228.986 132.361 216.388C137.036 214.932 131.46 140.407 131.254 125.552C131.048 110.698 136.017 113.682 138.528 117.031C141.417 95.384 146.072 105.615 148.038 113.436C149.726 58.2724 160.828 88.7262 166.167 110.849Z" fill="url(#paint4_linear_0_1)"/>
<rect x="27.7185" y="196.041" width="221" height="60" fill="url(#paint5_linear_0_1)"/>
<defs>
<linearGradient id="paint0_linear_0_1" x1="91.7489" y1="232.78" x2="160.251" y2="6.16933" gradientUnits="userSpaceOnUse">
<stop stop-color="#A5DEFF"/>
<stop offset="1" stop-color="#BDE7FF"/>
</linearGradient>
<linearGradient id="paint1_linear_0_1" x1="133.482" y1="196.041" x2="133.482" y2="196.041" gradientUnits="userSpaceOnUse">
<stop stop-color="#F4F4F4"/>
<stop offset="1" stop-color="white"/>
</linearGradient>
<linearGradient id="paint2_linear_0_1" x1="167.699" y1="220.712" x2="125.159" y2="123.36" gradientUnits="userSpaceOnUse">
<stop stop-color="#F4F4F4"/>
<stop offset="1" stop-color="white"/>
</linearGradient>
<radialGradient id="paint3_radial_0_1" cx="0" cy="0" r="1" gradientUnits="userSpaceOnUse" gradientTransform="translate(13.0071 14.1974) rotate(90) scale(14.1974 13.0071)">
<stop stop-color="#FFBBBB"/>
<stop offset="1" stop-color="#FFBBBB" stop-opacity="0"/>
</radialGradient>
<linearGradient id="paint4_linear_0_1" x1="178.341" y1="170.137" x2="128.981" y2="170.267" gradientUnits="userSpaceOnUse">
<stop stop-color="#F4F4F4"/>
<stop offset="1" stop-color="white"/>
</linearGradient>
<linearGradient id="paint5_linear_0_1" x1="138.219" y1="196.041" x2="138.219" y2="256.041" gradientUnits="userSpaceOnUse">
<stop stop-color="#FAFAFA" stop-opacity="0"/>
<stop offset="1" stop-color="white"/>
</linearGradient>
</defs>
</svg>
