<svg width="247" height="270" viewBox="0 0 247 270" fill="none" xmlns="http://www.w3.org/2000/svg">
<path fill-rule="evenodd" clip-rule="evenodd" d="M7.37899 53.3688C23.8943 19.6394 54.5068 4.6017 91.8414 0.768049C128.015 -2.94637 169.542 16.5295 195.449 42.0326C219.939 66.1419 246.861 91.1771 246.713 125.567C246.554 162.448 225.44 196.622 194.697 216.998C164.438 237.053 126.03 240.333 91.8413 228.213C59.3402 216.691 27.8881 203.478 15.5411 171.267C3.32579 139.4 -7.63806 84.0383 7.37899 53.3688Z" fill="url(#paint0_linear_0_1)"/>
<line x1="1.5" y1="-1.5" x2="31.5621" y2="-1.5" transform="matrix(-0.0288564 0.999584 0.999584 0.0288564 125.223 217.008)" stroke="#FF6B0A" stroke-width="3" stroke-linecap="round"/>
<path d="M108.483 256.775L124.547 248.021" stroke="#FF6B0A" stroke-width="3" stroke-linecap="round"/>
<path d="M118.296 258.367L125.223 248.453" stroke="#FF6B0A" stroke-width="3" stroke-linecap="round"/>
<path d="M104.168 249.892L122.915 247.801" stroke="#FF6B0A" stroke-width="3" stroke-linecap="round"/>
<path d="M71.4429 185.506C82.3613 226.792 126.636 282.515 216.389 175.112C163.49 151.638 60.4405 120.853 71.4429 185.506Z" fill="url(#paint1_linear_0_1)"/>
<path d="M111.364 93.9262C119.681 73.9644 107.898 66.2015 100.967 64.8152C95.7688 68.2808 77.2626 75.212 86.4118 75.212C95.561 75.212 92.9963 87.6882 90.5704 93.9262C45.6562 154.644 71.8562 188.537 85.3721 197.894C100.967 191.656 126.959 177.309 106.166 169.823C80.1737 160.466 100.967 118.879 111.364 93.9262Z" fill="url(#paint2_linear_0_1)"/>
<ellipse rx="10.0949" ry="29.2087" transform="matrix(-0.00903533 0.999959 0.999959 0.00903533 126.11 226.143)" fill="url(#paint3_radial_0_1)"/>
<path d="M140.575 228.361L140.575 252.805" stroke="#FF6B0A" stroke-width="3" stroke-linecap="round"/>
<path d="M123.933 261.651L139.998 252.897" stroke="#FF6B0A" stroke-width="3" stroke-linecap="round"/>
<path d="M133.746 263.244L140.672 253.329" stroke="#FF6B0A" stroke-width="3" stroke-linecap="round"/>
<path d="M119.618 254.769L138.365 252.677" stroke="#FF6B0A" stroke-width="3" stroke-linecap="round"/>
<path d="M141.107 116.891C77.2738 137.51 90.4837 158.321 105.068 166.15C109.274 172.973 122.494 163.816 128.578 158.385C128.69 155.111 130.798 147.371 138.337 142.601C145.876 137.832 143.703 135.845 141.674 135.447C152.235 126.59 146.439 127.178 142.221 128.579C176.026 110.256 153.008 112.795 141.107 116.891Z" fill="#D9D9D9"/>
<path d="M143.426 118.035C78.7774 140.067 92.6829 160.697 107.717 168.258C112.149 175.024 125.435 165.553 131.524 159.972C131.569 156.682 133.556 148.864 141.142 143.917C148.729 138.97 146.471 137.019 144.394 136.662C154.976 127.547 149.079 128.258 144.808 129.752C172.617 109.915 155.474 113.676 143.426 118.035Z" fill="#FAFAFA"/>
<path d="M75.2445 90.1979C94.7853 100.973 103.856 94.6874 105.948 90.1979C120.216 81.7145 116.906 52.7599 92.4797 52.7599C68.0537 52.7599 50.8185 76.7294 75.2445 90.1979Z" fill="white"/>
<path d="M88.6307 82.2921L85.5194 80.2885C79.9315 76.6903 73.1958 75.3228 66.6471 76.457C66.277 76.5211 65.9797 76.798 65.8897 77.1627L59.5836 102.702C59.1277 104.548 61.2633 105.929 62.7597 104.755L88.7282 84.3843C89.4236 83.8389 89.3738 82.7706 88.6307 82.2921Z" fill="#DF5B04"/>
<path d="M89.1852 82.1431L86.6351 80.5571C80.623 76.818 73.4617 75.3789 66.4719 76.5053C66.1985 76.5494 65.9538 76.6998 65.791 76.9238L50.0927 98.5222C48.8785 100.193 50.6847 102.384 52.5562 101.51L89.0447 84.4856C90.005 84.0375 90.085 82.7027 89.1852 82.1431Z" fill="#FF6B0A"/>
<circle cx="66.6844" cy="69.881" r="2.51109" fill="#797979"/>
<circle cx="92.4796" cy="72.392" r="2.51109" fill="#797979"/>
<path d="M74.2821 38.5194L74.8509 35.5199L110.704 42.3188L107.62 58.5845L106.36 58.3455L76.459 54.5741L71.7664 51.7855L73.9105 40.4792L73.7341 40.4697L73.7605 38.5161L74.2821 38.5194Z" fill="#373500"/>
<ellipse cx="92.1933" cy="42.0176" rx="18.7695" ry="1.86542" transform="rotate(10.7376 92.1933 42.0176)" fill="#0C0632"/>
<path d="M71.3422 51.7592C59.1265 52.4633 47.5319 68.2716 98.4883 59.9275L71.3422 51.7592Z" fill="#373500"/>
<path d="M71.2576 51.6266C73.1588 57.2847 103.986 62.8284 108.152 58.6231L110.597 45.5429C105.16 46.2778 95.4881 41.3707 87.1261 42.8048L76.4444 52.3081L73.7599 38.5161L71.2576 51.6266Z" fill="#494600"/>
<ellipse cx="92.7299" cy="39.1476" rx="18.242" ry="1.86542" transform="rotate(10.7376 92.7299 39.1476)" fill="#373500"/>
<ellipse cx="92.4591" cy="42.068" rx="18.4987" ry="1.86542" transform="rotate(10.7376 92.4591 42.068)" fill="#373500"/>
<path d="M69.5035 31.7921C69.5544 31.8552 69.5986 31.9047 69.6335 31.9585C69.933 32.3957 70.0529 32.8231 69.9657 33.3369C69.9286 33.5546 69.865 33.7705 69.8141 33.9833C69.7684 34.1714 69.724 34.3562 69.6817 34.5456C69.6714 34.5949 69.6571 34.6126 69.5994 34.6C69.4782 34.569 69.3583 34.5875 69.2693 34.6812C69.1887 34.7627 69.1716 34.8625 69.2042 34.9646C69.2357 35.0701 69.3167 35.1362 69.4192 35.1758C69.471 35.1939 69.5129 35.1859 69.5578 35.1486C69.9059 34.8696 70.174 34.5323 70.3759 34.1417C70.5416 33.8179 70.6382 33.4698 70.7474 33.13C70.8106 32.9366 70.8819 32.7423 70.9382 32.5465C70.9756 32.4235 71.0209 32.3108 71.095 32.2044C71.1692 32.0981 71.2638 32.0102 71.3859 31.9432C71.4426 32.065 71.4619 32.1928 71.4431 32.3185C71.4232 32.4363 71.3871 32.5559 71.3499 32.6677C71.3091 32.7895 71.251 32.9053 71.2045 33.0213C71.0797 33.3293 70.9515 33.636 70.8371 33.9475C70.6499 34.468 70.6063 35.0009 70.7158 35.5418C70.7282 35.6142 70.7704 35.6478 70.8385 35.664C71.0093 35.7086 71.1793 35.6281 71.2346 35.4773C71.2863 35.3366 71.2052 35.1647 71.0452 35.1012C70.9877 35.0774 70.9916 35.0561 71.0157 35.0116C71.1366 34.7779 71.2553 34.5396 71.3727 34.3047C71.5094 34.0388 71.6288 33.7667 71.8422 33.5465C72.1244 33.2557 72.4374 33.1043 72.8407 33.0146C72.8698 33.0097 72.8989 33.0047 72.9409 32.9967C72.9298 33.0268 72.9224 33.0469 72.9151 33.067C72.439 34.3635 71.9827 35.6064 71.5066 36.9029C71.4796 36.9766 71.4796 36.9766 71.407 36.9512C71.134 36.8558 70.8575 36.7592 70.5845 36.6639C70.5361 36.647 70.5105 36.6531 70.4829 36.6964C70.273 37.0237 69.9781 37.2534 69.5963 37.3694C69.5169 37.3946 69.4394 37.4356 69.361 37.4687C69.2694 37.2401 69.096 37.0435 69.0397 36.7933C68.9941 36.5883 68.9729 36.3806 69.0062 36.173C69.0118 36.1258 68.996 36.1052 68.9545 36.0907C68.6746 35.9929 68.3981 35.8963 68.1182 35.7985C68.0698 35.7816 68.0528 35.7644 68.0725 35.7107C68.551 34.4076 69.011 33.1547 69.4895 31.8515C69.4851 31.8424 69.49 31.829 69.5035 31.7921ZM69.5887 32.4947C69.5805 32.4956 69.5702 32.492 69.562 32.4929C69.5534 32.5164 69.5448 32.5398 69.5362 32.5633C69.3062 33.1897 69.0946 33.7659 68.8646 34.3924C68.8264 34.4962 68.8264 34.4962 68.937 34.5349C68.9785 34.5494 69.0029 34.5466 69.0281 34.51C69.115 34.4005 69.2324 34.3357 69.3686 34.3152C69.4268 34.3053 69.4448 34.2776 69.4551 34.2283C69.5089 33.9863 69.5604 33.7397 69.6246 33.5013C69.689 33.2516 69.7001 33.0514 69.6532 32.7969C69.6368 32.6929 69.6098 32.5965 69.5887 32.4947ZM72.4326 33.4995C72.4257 33.4971 72.4235 33.4925 72.4166 33.4901C72.386 33.5097 72.3554 33.5292 72.3283 33.55C72.1197 33.7039 71.9513 33.8227 71.8294 34.0485C71.6773 34.3355 71.532 34.625 71.3833 34.9132C71.3616 34.951 71.3621 34.9814 71.395 35.0193C71.4857 35.1228 71.5354 35.2422 71.5348 35.3819C71.5346 35.4461 71.5677 35.4728 71.6637 35.4874C71.7227 35.4967 71.7167 35.4492 71.7278 35.4191C71.9615 34.7826 72.1768 34.1963 72.4117 33.5564C72.4226 33.5375 72.4299 33.5174 72.4326 33.4995ZM69.2699 35.4336C69.2539 35.4242 69.2344 35.4136 69.2126 35.3984C69.0121 35.2755 68.8809 35.1125 68.8918 34.8706C68.8925 34.8368 68.8836 34.8186 68.8512 34.8111C68.827 34.8026 68.8028 34.7942 68.7786 34.7857C68.7441 34.7736 68.7253 34.7822 68.713 34.8157C68.6208 35.067 68.5273 35.3216 68.4385 35.574C68.4336 35.5874 68.4502 35.6272 68.464 35.6321C68.6494 35.7006 68.8394 35.767 69.0273 35.8289C69.0411 35.8337 69.0774 35.8199 69.0858 35.8077C69.1463 35.6852 69.2069 35.5628 69.2699 35.4336ZM70.749 35.9503C70.7137 36.0891 70.6842 36.2224 70.65 36.3579C70.64 36.396 70.6676 36.4056 70.6953 36.4153C70.8715 36.4769 71.0455 36.5339 71.2206 36.5988C71.2758 36.6181 71.3005 36.6041 71.3155 36.5526C71.3945 36.3269 71.4803 36.1037 71.564 35.8759C71.6021 35.772 71.6021 35.772 71.495 35.7346C71.4639 35.7237 71.4362 35.7141 71.4123 35.7473C71.2775 35.9232 71.0896 35.9785 70.8751 35.9679C70.83 35.9634 70.7873 35.9523 70.749 35.9503ZM70.3633 34.7496C70.1718 34.9738 69.9828 35.1912 69.7481 35.3738C69.8294 35.4816 69.905 35.5836 69.9853 35.6835C69.9954 35.6984 70.0324 35.7037 70.0534 35.6997C70.1629 35.6775 70.268 35.6462 70.3776 35.624C70.4114 35.6169 70.4244 35.6025 70.4182 35.5663C70.3654 35.3173 70.3602 35.066 70.3678 34.8117C70.3636 34.7913 70.364 34.7688 70.3633 34.7496ZM69.3184 36.2254C69.2406 36.3947 69.3028 36.8095 69.4008 36.8929C69.4055 36.8908 69.4102 36.8887 69.4102 36.8887C69.4742 36.7145 69.5416 36.5415 69.6009 36.3694C69.6058 36.356 69.589 36.3274 69.5764 36.3193C69.4924 36.2824 69.4048 36.2556 69.3184 36.2254ZM69.6887 37.001C69.868 36.9692 70.1724 36.6711 70.1974 36.5287C70.1214 36.5021 70.0385 36.4731 69.9624 36.4466C69.9175 36.4309 69.8975 36.4428 69.8828 36.483C69.8311 36.6237 69.7794 36.7644 69.7278 36.9051C69.7133 36.934 69.7022 36.9642 69.6887 37.001ZM69.5365 36.003C69.5815 36.0187 69.6286 36.0389 69.676 36.0479C69.6898 36.0527 69.7273 36.0356 69.7276 36.0243C69.7609 35.8697 69.7109 35.7086 69.5781 35.6244C69.5494 35.6068 69.5297 35.6075 69.5117 35.6352C69.4647 35.7208 69.4211 35.8077 69.3728 35.8966C69.3571 35.9289 69.3729 35.9496 69.404 35.9604C69.4467 35.9716 69.4916 35.9873 69.5365 36.003ZM70.1724 36.2251C70.2139 36.2396 70.2519 36.2529 70.2934 36.2674C70.3336 36.2852 70.364 36.2769 70.373 36.2309C70.3934 36.1436 70.4138 36.0562 70.4307 35.9676C70.4386 35.925 70.4215 35.9077 70.3752 35.9066C70.2303 35.8976 70.0624 35.9939 70.0109 36.1233C70.006 36.1367 70.0216 36.1686 70.0342 36.1768C70.0813 36.1971 70.1275 36.2094 70.1724 36.2251Z" fill="#FFD500"/>
<ellipse cx="100.463" cy="83.6685" rx="9.32012" ry="10.1731" transform="rotate(40.381 100.463 83.6685)" fill="url(#paint4_radial_0_1)"/>
<ellipse cx="165.259" cy="106.966" rx="39.4631" ry="54.059" transform="rotate(-49.5284 165.259 106.966)" fill="#C4C4C4"/>
<ellipse cx="168.417" cy="103.265" rx="34.5978" ry="54.059" transform="rotate(-49.5284 168.417 103.265)" fill="white"/>
<path d="M155.282 104.566L188.258 77.536L169.337 114.296C159.39 115.594 155.823 108.35 155.282 104.566Z" fill="#C4C4C4"/>
<ellipse cx="188.637" cy="77.536" rx="9.1744" ry="12.5677" transform="rotate(-49.5284 188.637 77.536)" fill="#C4C4C4"/>
<ellipse cx="189.371" cy="76.6756" rx="8.04331" ry="12.5677" transform="rotate(-49.5284 189.371 76.6756)" fill="white"/>
<path d="M186.096 76.8034L195.826 68.8866L190.243 79.6534C187.308 80.0334 186.255 77.9117 186.096 76.8034Z" fill="#C4C4C4"/>
<path d="M168.136 127.702C104.303 148.321 117.513 169.133 132.097 176.961C136.303 183.784 149.523 174.628 155.608 169.197C155.719 165.923 157.827 158.183 165.366 153.413C172.906 148.644 170.732 146.656 168.703 146.259C179.264 137.402 173.468 137.99 169.251 139.39C203.056 121.068 180.037 123.607 168.136 127.702Z" fill="#D9D9D9"/>
<path d="M170.456 128.847C105.807 150.879 119.712 171.509 134.746 179.07C139.178 185.836 152.464 176.365 158.554 170.784C158.599 167.494 160.585 159.676 168.172 154.729C175.758 149.782 173.501 147.831 171.424 147.474C182.005 138.359 176.108 139.069 171.837 140.564C199.646 120.727 182.503 124.487 170.456 128.847Z" fill="#F8F8F8"/>
<defs>
<linearGradient id="paint0_linear_0_1" x1="5.73243" y1="55.7596" x2="228.268" y2="184.24" gradientUnits="userSpaceOnUse">
<stop stop-color="#A5DEFF"/>
<stop offset="1" stop-color="#BDE7FF"/>
</linearGradient>
<linearGradient id="paint1_linear_0_1" x1="104.142" y1="190.077" x2="220.367" y2="172.521" gradientUnits="userSpaceOnUse">
<stop stop-color="#F2F2F2"/>
<stop offset="1" stop-color="white"/>
</linearGradient>
<linearGradient id="paint2_linear_0_1" x1="89.8142" y1="64.8152" x2="89.8142" y2="197.894" gradientUnits="userSpaceOnUse">
<stop stop-color="white"/>
<stop offset="1" stop-color="#F2F2F2"/>
</linearGradient>
<radialGradient id="paint3_radial_0_1" cx="0" cy="0" r="1" gradientUnits="userSpaceOnUse" gradientTransform="translate(10.0949 29.2087) rotate(90) scale(29.2087 10.0949)">
<stop stop-color="#D7D7D7"/>
<stop offset="1" stop-color="#D7D7D7" stop-opacity="0"/>
</radialGradient>
<radialGradient id="paint4_radial_0_1" cx="0" cy="0" r="1" gradientUnits="userSpaceOnUse" gradientTransform="translate(100.463 83.6685) rotate(90) scale(10.1731 9.32012)">
<stop stop-color="#FFBBBB"/>
<stop offset="1" stop-color="#FFBBBB" stop-opacity="0"/>
</radialGradient>
</defs>
</svg>
