<svg width="351" height="241" viewBox="0 0 351 241" fill="none" xmlns="http://www.w3.org/2000/svg">
<path fill-rule="evenodd" clip-rule="evenodd" d="M289.389 155.287C279.073 190.816 259.521 227.968 223.938 238.01C189.462 247.739 158.4 220.929 128.941 200.565C101.092 181.315 70.7276 161.577 65.0486 128.178C58.9583 92.3594 73.6625 55.6205 100.048 30.6411C126.018 6.05551 162.736 -3.63017 197.966 2.34364C231.458 8.02259 258.078 31.2253 275.514 60.3936C292.763 89.2509 298.77 122.981 289.389 155.287Z" fill="url(#paint0_linear_0_1)"/>
<path d="M296.065 132.233C140.633 114.156 149.683 161.143 173.637 186.896C176.338 202.196 213.033 197.514 231.042 193.26C234.298 187.709 245.937 176.133 266.447 174.242C286.957 172.352 284.144 167.099 280.173 164.709C310.908 158.309 297.98 154.453 287.674 153.325C376.813 150.132 325.275 135.17 296.065 132.233Z" fill="#D9D9D9"/>
<path d="M299.967 134.068C141.488 117.742 152.193 165.001 177.355 190.671C180.591 206.062 217.717 200.893 235.875 196.385C239.004 190.749 250.456 178.937 271.23 176.78C292.004 174.624 288.977 169.363 284.867 167.002C315.884 160.175 302.626 156.445 292.121 155.434C369.839 144.591 329.734 136.672 299.967 134.068Z" fill="url(#paint1_linear_0_1)"/>
<line x1="1.5" y1="-1.5" x2="29.5388" y2="-1.5" transform="matrix(-0.93696 0.349437 0.349437 0.93696 159.507 208.884)" stroke="#FF6B0A" stroke-width="3" stroke-linecap="round"/>
<path d="M119.125 223.757L130.626 217.08" stroke="#FF6B0A" stroke-width="3" stroke-linecap="round"/>
<path d="M121.839 217.06L130.612 216.498" stroke="#FF6B0A" stroke-width="3" stroke-linecap="round"/>
<path d="M123.26 228.099L131.634 217.242" stroke="#FF6B0A" stroke-width="3" stroke-linecap="round"/>
<path d="M64.7223 107.623C220.9 117.359 203.671 162.001 175.535 183.104C170.167 197.684 134.881 186.577 117.91 179.202C115.688 173.161 106.283 159.707 86.4327 154.214C66.582 148.721 70.2811 144.05 74.612 142.401C45.4961 130.658 58.9029 129.153 69.2458 129.868C-17.9185 110.939 35.4543 105.341 64.7223 107.623Z" fill="#D9D9D9"/>
<path d="M60.1873 110.793C219.052 122.792 200.148 167.407 170.837 188.215C164.927 202.79 129.303 191.128 112.23 183.476C110.149 177.374 100.97 163.721 80.9062 157.92C60.8423 152.118 64.753 147.477 69.2163 145.881C39.899 133.668 53.6072 132.345 64.1259 133.21C-10.4436 108.775 30.4295 108.084 60.1873 110.793Z" fill="url(#paint2_linear_0_1)"/>
<path d="M227.278 166.027C220.559 197.359 175.361 244.826 48.3242 184.046C109.253 158.042 230.344 118.033 227.278 166.027Z" fill="url(#paint3_linear_0_1)"/>
<path d="M176.249 84.004C170.204 69.4944 178.768 63.8518 183.806 62.8441C187.585 65.3632 201.036 70.4012 194.386 70.4012C187.736 70.4012 189.6 79.4697 191.363 84.004C224.01 128.137 204.966 152.773 195.142 159.575C183.806 155.041 164.914 144.612 180.028 139.171C198.92 132.369 183.806 102.141 176.249 84.004Z" fill="white"/>
<ellipse cx="169.499" cy="195.751" rx="10.8225" ry="41.9399" transform="rotate(74.2873 169.499 195.751)" fill="url(#paint4_radial_0_1)"/>
<line x1="1.5" y1="-1.5" x2="29.5389" y2="-1.5" transform="matrix(-0.978284 0.20727 0.20727 0.978284 143.914 207.157)" stroke="#FF6B0A" stroke-width="3" stroke-linecap="round"/>
<path d="M102.038 217.214L114.236 211.92" stroke="#FF6B0A" stroke-width="3" stroke-linecap="round"/>
<path d="M105.512 210.878L114.291 211.34" stroke="#FF6B0A" stroke-width="3" stroke-linecap="round"/>
<path d="M105.64 222.008L115.219 212.198" stroke="#FF6B0A" stroke-width="3" stroke-linecap="round"/>
<path d="M217.694 91.7718C196.263 103.589 186.315 96.6957 184.02 91.7718C168.372 82.4676 172.002 50.7114 198.791 50.7114C225.581 50.7114 244.484 77.0001 217.694 91.7718Z" fill="white"/>
<path d="M203.013 83.1011L206.425 80.9037C212.554 76.9573 219.941 75.4575 227.123 76.7014C227.529 76.7717 227.855 77.0754 227.954 77.4754L235.005 106.031C235.461 107.877 233.325 109.258 231.829 108.084L202.906 85.3958C202.143 84.7975 202.198 83.6258 203.013 83.1011Z" fill="#DF5B04"/>
<path d="M202.404 82.9376L205.201 81.1982C211.795 77.0973 219.649 75.519 227.315 76.7544C227.615 76.8027 227.883 76.9677 228.062 77.2133L245.719 101.507C246.934 103.178 245.127 105.369 243.256 104.496L202.558 85.5068C201.505 85.0154 201.417 83.5514 202.404 82.9376Z" fill="#FF6B0A"/>
<circle r="2.75405" transform="matrix(-1 0 0 1 227.082 69.489)" fill="#797979"/>
<circle r="2.75405" transform="matrix(-1 0 0 1 198.791 72.2431)" fill="#797979"/>
<path d="M218.749 35.093L218.126 31.8032L178.803 39.26L182.186 57.0995L183.568 56.8375L216.362 52.7011L221.509 49.6428L219.157 37.2425L219.35 37.2321L219.322 35.0894L218.749 35.093Z" fill="#373500"/>
<ellipse rx="20.5856" ry="2.04591" transform="matrix(-0.982491 0.186312 0.186312 0.982491 199.106 38.9296)" fill="#0C0632"/>
<path d="M221.974 49.6139C235.371 50.3861 248.088 67.724 192.201 58.5725L221.974 49.6139Z" fill="#373500"/>
<path d="M222.067 49.4685C219.982 55.6741 186.172 61.7542 181.602 57.1419L178.922 42.7962C184.884 43.6021 195.492 38.2203 204.663 39.7931L216.378 50.2159L219.322 35.0894L222.067 49.4685Z" fill="#494600"/>
<ellipse rx="20.0071" ry="2.04591" transform="matrix(-0.982491 0.186312 0.186312 0.982491 198.516 35.782)" fill="#373500"/>
<ellipse rx="20.2886" ry="2.04591" transform="matrix(-0.982491 0.186312 0.186312 0.982491 198.814 38.985)" fill="#373500"/>
<path d="M207.195 32.3923C207.138 32.4644 207.088 32.5208 207.048 32.5822C206.71 33.0814 206.575 33.5693 206.674 34.1558C206.715 34.4043 206.787 34.6507 206.845 34.8936C206.896 35.1084 206.946 35.3194 206.994 35.5355C207.006 35.5918 207.022 35.612 207.087 35.5976C207.223 35.5622 207.359 35.5835 207.459 35.6904C207.55 35.7834 207.569 35.8973 207.532 36.0139C207.497 36.1343 207.406 36.2098 207.29 36.255C207.232 36.2756 207.184 36.2665 207.134 36.224C206.741 35.9054 206.439 35.5204 206.211 35.0745C206.024 34.7048 205.915 34.3075 205.792 33.9196C205.721 33.6988 205.64 33.477 205.577 33.2535C205.535 33.1131 205.483 32.9844 205.4 32.863C205.316 32.7415 205.209 32.6412 205.072 32.5648C205.008 32.7039 204.986 32.8497 205.007 32.9932C205.03 33.1276 205.07 33.2642 205.112 33.3918C205.158 33.5309 205.224 33.663 205.276 33.7955C205.417 34.147 205.562 34.4972 205.691 34.8528C205.902 35.447 205.951 36.0553 205.828 36.6728C205.814 36.7554 205.766 36.7938 205.689 36.8124C205.496 36.8632 205.305 36.7713 205.242 36.5992C205.184 36.4386 205.276 36.2423 205.456 36.1699C205.521 36.1426 205.517 36.1183 205.489 36.0675C205.353 35.8007 205.219 35.5288 205.087 35.2606C204.932 34.957 204.798 34.6464 204.557 34.395C204.239 34.0631 203.886 33.8902 203.431 33.7878C203.398 33.7822 203.365 33.7765 203.318 33.7674C203.33 33.8018 203.339 33.8247 203.347 33.8477C203.884 35.3277 204.399 36.7465 204.936 38.2265C204.966 38.3107 204.966 38.3107 205.048 38.2817C205.356 38.1729 205.668 38.0626 205.976 37.9537C206.03 37.9344 206.059 37.9415 206.09 37.9909C206.327 38.3645 206.66 38.6267 207.09 38.7592C207.18 38.7879 207.267 38.8347 207.356 38.8725C207.459 38.6116 207.655 38.3871 207.718 38.1014C207.77 37.8675 207.793 37.6303 207.756 37.3934C207.75 37.3395 207.767 37.3159 207.814 37.2994C208.13 37.1878 208.442 37.0775 208.757 36.9659C208.812 36.9466 208.831 36.9269 208.809 36.8657C208.269 35.378 207.75 33.9477 207.211 32.4601C207.216 32.4496 207.21 32.4343 207.195 32.3923ZM207.099 33.1943C207.108 33.1954 207.12 33.1912 207.129 33.1923C207.139 33.2191 207.148 33.2458 207.158 33.2726C207.418 33.9877 207.656 34.6455 207.916 35.3607C207.959 35.4792 207.959 35.4792 207.834 35.5233C207.787 35.5399 207.76 35.5367 207.731 35.4949C207.633 35.37 207.501 35.2959 207.347 35.2726C207.281 35.2613 207.261 35.2296 207.25 35.1733C207.189 34.897 207.131 34.6156 207.058 34.3434C206.986 34.0584 206.973 33.8299 207.026 33.5393C207.045 33.4206 207.075 33.3106 207.099 33.1943ZM203.891 34.3414C203.899 34.3386 203.901 34.3334 203.909 34.3306C203.944 34.353 203.978 34.3753 204.009 34.399C204.244 34.5747 204.434 34.7104 204.571 34.9681C204.743 35.2958 204.907 35.6262 205.075 35.9552C205.099 35.9983 205.099 36.0331 205.062 36.0764C204.959 36.1945 204.903 36.3308 204.904 36.4903C204.904 36.5635 204.867 36.594 204.758 36.6107C204.692 36.6213 204.699 36.5671 204.686 36.5327C204.423 35.8061 204.18 35.1368 203.915 34.4064C203.902 34.3848 203.894 34.3619 203.891 34.3414ZM207.458 36.5493C207.477 36.5385 207.499 36.5265 207.523 36.5092C207.749 36.3688 207.897 36.1827 207.885 35.9066C207.884 35.868 207.894 35.8472 207.931 35.8386C207.958 35.829 207.985 35.8193 208.013 35.8097C208.052 35.7959 208.073 35.8057 208.087 35.8439C208.191 36.1307 208.296 36.4214 208.396 36.7096C208.402 36.7249 208.383 36.7703 208.367 36.7759C208.158 36.8541 207.944 36.9299 207.732 37.0005C207.716 37.006 207.676 36.9903 207.666 36.9763C207.598 36.8365 207.53 36.6967 207.458 36.5493ZM205.79 37.1391C205.83 37.2976 205.863 37.4498 205.902 37.6045C205.913 37.6479 205.882 37.6589 205.851 37.67C205.652 37.7403 205.456 37.8053 205.258 37.8794C205.196 37.9015 205.168 37.8854 205.151 37.8267C205.062 37.5691 204.965 37.3142 204.871 37.0542C204.828 36.9356 204.828 36.9356 204.949 36.8929C204.984 36.8805 205.015 36.8695 205.042 36.9074C205.194 37.1082 205.406 37.1714 205.648 37.1592C205.699 37.1541 205.747 37.1414 205.79 37.1391ZM206.225 35.7685C206.441 36.0244 206.654 36.2726 206.919 36.481C206.827 36.6041 206.742 36.7205 206.652 36.8345C206.64 36.8515 206.598 36.8577 206.575 36.8531C206.451 36.8277 206.333 36.792 206.209 36.7666C206.171 36.7585 206.156 36.7421 206.163 36.7008C206.223 36.4166 206.229 36.1297 206.22 35.8393C206.225 35.8161 206.224 35.7904 206.225 35.7685ZM207.404 37.4531C207.491 37.6465 207.421 38.12 207.311 38.2152C207.305 38.2128 207.3 38.2103 207.3 38.2103C207.228 38.0115 207.152 37.814 207.085 37.6176C207.08 37.6023 207.099 37.5697 207.113 37.5603C207.207 37.5182 207.306 37.4876 207.404 37.4531ZM206.986 38.3386C206.784 38.3023 206.44 37.962 206.412 37.7994C206.498 37.7691 206.592 37.736 206.677 37.7057C206.728 37.6877 206.751 37.7014 206.767 37.7472C206.825 37.9079 206.884 38.0685 206.942 38.2291C206.958 38.2621 206.971 38.2966 206.986 38.3386ZM207.158 37.1993C207.107 37.2172 207.054 37.2403 207 37.2506C206.985 37.2561 206.943 37.2365 206.942 37.2237C206.905 37.0471 206.961 36.8632 207.111 36.7671C207.143 36.747 207.165 36.7478 207.186 36.7794C207.239 36.8772 207.288 36.9763 207.342 37.0779C207.36 37.1147 207.342 37.1383 207.307 37.1507C207.259 37.1634 207.208 37.1813 207.158 37.1993ZM206.44 37.4528C206.394 37.4694 206.351 37.4845 206.304 37.5011C206.259 37.5214 206.224 37.512 206.214 37.4595C206.191 37.3597 206.168 37.26 206.149 37.1589C206.14 37.1102 206.159 37.0905 206.212 37.0893C206.375 37.079 206.565 37.1889 206.623 37.3367C206.628 37.352 206.611 37.3884 206.596 37.3977C206.543 37.4208 206.491 37.4349 206.44 37.4528Z" fill="#FFD500"/>
<ellipse rx="10.2219" ry="11.1574" transform="matrix(-0.761754 0.647867 0.647867 0.761754 190.035 84.6107)" fill="url(#paint5_radial_0_1)"/>
<defs>
<linearGradient id="paint0_linear_0_1" x1="290.374" y1="154.162" x2="70.9208" y2="73.8375" gradientUnits="userSpaceOnUse">
<stop stop-color="#A5DEFF"/>
<stop offset="1" stop-color="#BDE7FF"/>
</linearGradient>
<linearGradient id="paint1_linear_0_1" x1="241.067" y1="128.949" x2="248.673" y2="196.347" gradientUnits="userSpaceOnUse">
<stop stop-color="white"/>
<stop offset="1" stop-color="#F5F5F5"/>
</linearGradient>
<linearGradient id="paint2_linear_0_1" x1="119.063" y1="116.186" x2="99.6411" y2="181.172" gradientUnits="userSpaceOnUse">
<stop stop-color="white"/>
<stop offset="1" stop-color="#F9F9F9"/>
</linearGradient>
<linearGradient id="paint3_linear_0_1" x1="175.299" y1="150.293" x2="100.066" y2="201.421" gradientUnits="userSpaceOnUse">
<stop stop-color="white"/>
<stop offset="1" stop-color="#F5F5F5"/>
</linearGradient>
<radialGradient id="paint4_radial_0_1" cx="0" cy="0" r="1" gradientUnits="userSpaceOnUse" gradientTransform="translate(169.499 195.751) rotate(90) scale(41.9399 10.8225)">
<stop stop-color="#E8E8E8"/>
<stop offset="1" stop-color="#EFEFEF" stop-opacity="0.5"/>
</radialGradient>
<radialGradient id="paint5_radial_0_1" cx="0" cy="0" r="1" gradientUnits="userSpaceOnUse" gradientTransform="translate(10.2219 11.1574) rotate(90) scale(11.1574 10.2219)">
<stop stop-color="#FFBBBB"/>
<stop offset="1" stop-color="#FFBBBB" stop-opacity="0"/>
</radialGradient>
</defs>
</svg>
