<svg width="100" height="39" viewBox="0 0 100 39" fill="none" xmlns="http://www.w3.org/2000/svg">
<path fill-rule="evenodd" clip-rule="evenodd" d="M43.8462 8.104H0V38.104H43.8462L55.3846 23.104L43.8462 8.104ZM19.6567 21.0752C19.5886 21.0207 19.5215 20.9662 19.4547 20.9121C19.286 20.7753 19.1199 20.6407 18.949 20.5116C18.4829 20.1558 17.9766 19.8725 17.3959 19.7462C16.7549 19.606 16.1076 19.5552 15.4681 19.7493C14.556 20.0249 13.9212 20.6255 13.5015 21.4618C13.1531 22.1579 13.0602 22.8956 13.1516 23.6625C13.2243 24.2631 13.4179 24.8206 13.7725 25.315C14.3176 26.0742 15.0608 26.5131 15.9899 26.6286C16.8261 26.7333 17.6359 26.6286 18.4024 26.2621C18.6641 26.1366 18.6641 26.1343 18.6641 25.8453V25.8401C18.6641 25.7697 18.6643 25.6995 18.6645 25.6294V25.6292V25.629V25.6289C18.6648 25.4889 18.6651 25.3491 18.6641 25.2087C18.6639 25.1805 18.6643 25.1564 18.6646 25.1359C18.6656 25.0774 18.666 25.0474 18.6512 25.0322C18.6355 25.0161 18.6028 25.0165 18.5356 25.0173C18.5187 25.0175 18.4997 25.0177 18.4783 25.0177H16.0472C16.0255 25.0177 16.0062 25.018 15.9892 25.0182C15.921 25.019 15.8878 25.0194 15.872 25.0031C15.857 24.9877 15.8577 24.9573 15.8589 24.8979C15.8593 24.8781 15.8598 24.8551 15.8598 24.8283C15.8588 24.1815 15.8591 23.5347 15.8595 22.8879C15.8597 22.5645 15.8598 22.241 15.8598 21.9176C15.8598 21.9059 15.8602 21.894 15.8605 21.8821L15.8605 21.882C15.8612 21.8579 15.8619 21.8335 15.8598 21.8098C15.8552 21.7529 15.8753 21.7221 15.9373 21.7282C15.9611 21.7303 15.9856 21.7296 16.0098 21.7289C16.0219 21.7286 16.0338 21.7282 16.0457 21.7282H22.1915C22.2318 21.7282 22.2658 21.7359 22.2597 21.7867C22.2569 21.8173 22.2762 21.8379 22.2959 21.8589C22.3199 21.8844 22.3445 21.9105 22.3309 21.9561C22.3191 21.9954 22.3221 22.0383 22.3251 22.0814C22.3264 22.1008 22.3278 22.1203 22.3278 22.1394L22.3277 23.2449C22.3274 24.7187 22.3272 26.1932 22.3309 27.6666C22.3309 27.7867 22.2937 27.8622 22.2024 27.9377C21.058 28.8848 19.7713 29.547 18.3157 29.875C17.4548 30.0691 16.583 30.123 15.7019 30.0521C14.6613 29.969 13.6719 29.7025 12.7583 29.1974C11.0813 28.2703 10.0252 26.8627 9.539 25.0254C9.32531 24.2138 9.26027 23.3868 9.3284 22.5521C9.5839 19.4567 11.761 17.0419 14.6784 16.3704C15.5114 16.1779 16.3523 16.1502 17.2008 16.2072C17.8512 16.2518 18.4907 16.3535 19.1163 16.5383C20.0531 16.817 20.88 17.2975 21.6325 17.9135C21.7208 17.9859 21.8075 18.0583 21.8927 18.1322C22.0011 18.2246 22.0042 18.277 21.9097 18.3909C21.4359 18.9608 20.962 19.529 20.4867 20.0973C20.2497 20.3822 20.0128 20.6671 19.7744 20.9505C19.7682 20.9584 19.7622 20.9665 19.756 20.9748C19.7298 21.0102 19.7019 21.0478 19.6567 21.0752ZM31.7515 16.1809C33.5152 16.1948 35.2216 16.8154 36.654 18.1183C37.7658 19.1316 38.4471 20.3945 38.7196 21.8683C39.0231 23.5084 38.8048 25.0793 37.9903 26.5438C37.024 28.281 35.5499 29.3945 33.6267 29.8981C31.9714 30.3323 30.33 30.2446 28.7459 29.587C26.6834 28.7292 25.3502 27.1891 24.7246 25.0731C24.1656 23.1804 24.3684 21.3401 25.3687 19.6244C26.3427 17.952 27.8091 16.9047 29.6828 16.4165C30.3285 16.2487 30.937 16.1825 31.7515 16.1809ZM31.3334 19.703C30.3656 19.7246 29.3684 20.2759 28.7444 21.4263C28.3201 22.2071 28.221 23.0495 28.3821 23.9196C28.509 24.6065 28.8079 25.2148 29.3034 25.7138C30.0761 26.493 31.0222 26.7995 32.1061 26.6748C33.2272 26.5469 34.0603 25.974 34.5945 24.9899C35.0482 24.1522 35.1427 23.2559 34.9305 22.3334C34.5806 20.8026 33.2969 19.6984 31.3334 19.703Z" fill="#FF6B0A"/>
<path fill-rule="evenodd" clip-rule="evenodd" d="M99.2309 8.104H55.3848V38.104H99.2309V8.104ZM69.7687 16.3639V22.9076V29.4204C69.7687 29.4343 69.769 29.4482 69.7694 29.462L69.7694 29.4621V29.4621C69.77 29.4897 69.7707 29.517 69.7687 29.5436C69.7625 29.6191 69.7826 29.6637 69.8693 29.6514C69.89 29.6494 69.9106 29.65 69.9313 29.6507C69.9416 29.6511 69.9519 29.6514 69.9622 29.6514C70.3278 29.6514 70.6936 29.6516 71.0595 29.6518H71.0599H71.0602H71.0629C71.7946 29.6521 72.5268 29.6524 73.2589 29.6514C73.282 29.6514 73.3024 29.6517 73.3205 29.6519C73.391 29.6528 73.4253 29.6532 73.4416 29.6363C73.457 29.6203 73.4563 29.5887 73.455 29.5273V29.5272C73.4545 29.5065 73.454 29.4824 73.454 29.4543V16.3824C73.454 16.3722 73.4537 16.3619 73.4533 16.3516C73.4526 16.3311 73.452 16.3106 73.454 16.29C73.4618 16.213 73.4354 16.173 73.3518 16.1822C73.3354 16.1843 73.3182 16.1836 73.3008 16.1829L73.2949 16.1827C73.2881 16.1824 73.2813 16.1822 73.2744 16.1822C72.905 16.1822 72.5354 16.182 72.1658 16.1819H72.1656H72.1655C71.4258 16.1815 70.6859 16.1812 69.9467 16.1822C69.9248 16.1822 69.9056 16.1819 69.8887 16.1817H69.8886C69.8277 16.1808 69.7971 16.1803 69.7819 16.1954C69.7667 16.2106 69.7672 16.2415 69.7681 16.3037C69.7684 16.3212 69.7687 16.3412 69.7687 16.3639ZM88.1242 16.1827H82.6272C80.7953 16.1827 78.9635 16.1827 77.1332 16.1811C77.1257 16.1811 77.1182 16.1812 77.1107 16.1813C77.1043 16.1813 77.098 16.1814 77.0916 16.1815C77.0643 16.1818 77.0371 16.1822 77.0093 16.1811C76.9474 16.178 76.9257 16.2073 76.9303 16.2643C76.9314 16.2817 76.931 16.2984 76.9307 16.3153C76.9305 16.3239 76.9303 16.3325 76.9303 16.3413V19.4676L76.9302 19.5C76.9299 19.567 76.9298 19.6001 76.9462 19.6162C76.9622 19.6319 76.9939 19.6316 77.0563 19.6311L77.0991 19.6308H80.5522C80.665 19.6308 80.7207 19.6308 80.7483 19.6587C80.7752 19.6859 80.7752 19.7398 80.7752 19.8464V29.4855C80.7752 29.504 80.775 29.5204 80.7747 29.535V29.5351C80.774 29.5903 80.7735 29.6193 80.7878 29.6344C80.8034 29.6509 80.8368 29.6508 80.9067 29.6504L80.9409 29.6503H80.9873H84.2546C84.3586 29.6503 84.41 29.6503 84.4355 29.6246C84.4606 29.5993 84.4606 29.5493 84.4606 29.4501V19.811C84.4606 19.7902 84.4603 19.7718 84.46 19.7555L84.46 19.7553C84.4591 19.6958 84.4586 19.6648 84.4739 19.6488C84.4904 19.6314 84.5255 19.6316 84.5988 19.6321L84.6448 19.6324H88.1599C88.3116 19.6324 88.3116 19.6324 88.3132 19.483V19.4368V16.3721C88.3132 16.3508 88.3134 16.3319 88.3136 16.315V16.3149C88.3144 16.2472 88.3148 16.2136 88.2982 16.1971C88.2818 16.1808 88.2488 16.1813 88.1833 16.1822H88.1832C88.1659 16.1824 88.1464 16.1827 88.1242 16.1827Z" fill="#010101"/>
</svg>
